<svg width="48" height="48" viewBox="0 0 48 48" fill="none" xmlns="http://www.w3.org/2000/svg">
<rect width="48" height="48" rx="24" fill="#F5F5F5"></rect>
<path d="M12.9297 24.8066V19.9961H14.6582V24.748C14.6582 25.3223 14.8164 25.7812 15.1328 26.125C15.4492 26.4648 15.9121 26.6348 16.5215 26.6348C17.1152 26.6348 17.5684 26.4648 17.8809 26.125C18.1973 25.7812 18.3555 25.3223 18.3555 24.748V19.9961H20.084V24.7949C20.084 25.8262 19.7832 26.6426 19.1816 27.2441C18.584 27.8457 17.6973 28.1465 16.5215 28.1465C15.3379 28.1465 14.4434 27.8457 13.8379 27.2441C13.2324 26.6426 12.9297 25.8301 12.9297 24.8066ZM28.6406 28H26.6836L25.1133 25.1348H23.8652V28H22.1602V19.9961H25.9043C26.7285 19.9961 27.3828 20.2363 27.8672 20.7168C28.3516 21.1973 28.5938 21.8164 28.5938 22.5742C28.5938 23.2305 28.4238 23.7637 28.084 24.1738C27.7441 24.5801 27.3301 24.8398 26.8418 24.9531L28.6406 28ZM26.5078 23.3652C26.7383 23.1582 26.8535 22.8906 26.8535 22.5625C26.8535 22.2344 26.7383 21.9688 26.5078 21.7656C26.2812 21.5625 25.9961 21.4609 25.6523 21.4609H23.8652V23.6699H25.6523C25.9961 23.6699 26.2812 23.5684 26.5078 23.3652ZM35.4629 28H30.3711V19.9961H32.0762V26.5H35.4629V28Z" fill="#1B1D1C"></path>
</svg>