<svg width="32" height="32" viewBox="0 0 32 32" fill="none" xmlns="http://www.w3.org/2000/svg">
<path d="M24.543 11.5082L24.0874 10.7175C23.7428 10.1195 23.5705 9.82051 23.2774 9.70128C22.9842 9.58205 22.6527 9.67613 21.9896 9.8643L20.8633 10.1816C20.4399 10.2792 19.9958 10.2238 19.6093 10.0252L19.2983 9.84577C18.9668 9.63348 18.7119 9.32047 18.5708 8.95254L18.2625 8.03188C18.0598 7.42263 17.9585 7.11801 17.7172 6.94377C17.4759 6.76953 17.1555 6.76953 16.5145 6.76953H15.4855C14.8445 6.76953 14.5241 6.76953 14.2828 6.94377C14.0415 7.11801 13.9402 7.42263 13.7375 8.03188L13.4292 8.95254C13.2881 9.32047 13.0332 9.63348 12.7017 9.84577L12.3907 10.0252C12.0042 10.2238 11.5601 10.2792 11.1367 10.1816L10.0104 9.8643C9.3473 9.67613 9.01576 9.58205 8.72261 9.70128C8.42947 9.82051 8.25718 10.1195 7.9126 10.7175L7.45698 11.5082C7.13399 12.0687 6.9725 12.349 7.00384 12.6474C7.03518 12.9457 7.25138 13.1862 7.68378 13.667L8.63551 14.7311C8.86812 15.0255 9.03326 15.5387 9.03326 16.0001C9.03326 16.4618 8.86817 16.9749 8.63553 17.2694L7.68378 18.3334C7.25138 18.8143 7.03518 19.0547 7.00384 19.3531C6.9725 19.6515 7.134 19.9317 7.45698 20.4923L7.91259 21.2829L7.91259 21.283C8.25716 21.8809 8.42947 22.18 8.72261 22.2992C9.01577 22.4184 9.34731 22.3243 10.0104 22.1361L11.1367 21.8189C11.5601 21.7212 12.0043 21.7766 12.3909 21.9753L12.7018 22.1548C13.0332 22.3671 13.2881 22.68 13.4292 23.0479L13.7375 23.9687C13.9402 24.5779 14.0415 24.8825 14.2828 25.0568C14.5241 25.231 14.8445 25.231 15.4855 25.231H16.5145C17.1555 25.231 17.4759 25.231 17.7172 25.0568C17.9585 24.8825 18.0598 24.5779 18.2625 23.9687L18.5708 23.0479C18.7119 22.68 18.9668 22.3671 19.2982 22.1548L19.6091 21.9753C19.9957 21.7766 20.4399 21.7212 20.8633 21.8189L21.9896 22.1361C22.6527 22.3243 22.9842 22.4184 23.2774 22.2992C23.5705 22.18 23.7428 21.8809 24.0874 21.283L24.0874 21.2829L24.543 20.4923C24.866 19.9317 25.0275 19.6515 24.9962 19.3531C24.9648 19.0547 24.7486 18.8143 24.3162 18.3334L23.3645 17.2694C23.1318 16.9749 22.9667 16.4618 22.9667 16.0001C22.9667 15.5387 23.1319 15.0255 23.3645 14.7311L24.3162 13.667C24.7486 13.1862 24.9648 12.9457 24.9962 12.6474C25.0275 12.349 24.866 12.0687 24.543 11.5082Z" stroke="#1B1D1C" stroke-width="1.2" stroke-linecap="round"></path>
<path d="M19.191 15.9935C19.191 17.7778 17.7446 19.2242 15.9603 19.2242C14.176 19.2242 12.7295 17.7778 12.7295 15.9935C12.7295 14.2092 14.176 12.7627 15.9603 12.7627C17.7446 12.7627 19.191 14.2092 19.191 15.9935Z" stroke="#1B1D1C" stroke-width="1.2"></path>
</svg>