<svg width="44" height="44" viewBox="0 0 44 44" fill="none" xmlns="http://www.w3.org/2000/svg">
<rect width="44" height="44" rx="22" fill="#1B1D1C"></rect>
<g clip-path="url(#clip0_966_23677)">
<path d="M11.5186 21.1728H8.90918V15.1395H10.4446V19.692H11.5186V21.1728Z" fill="white"></path>
<path d="M16.6966 15C14.931 15 13.5 16.4076 13.5 18.1449C13.5 19.8822 14.931 21.2899 16.6966 21.2899C18.4622 21.2899 19.8933 19.8822 19.8933 18.1449C19.8933 16.4076 18.4613 15 16.6966 15ZM16.6966 19.8383C15.7748 19.8383 15.0276 19.0863 15.0276 18.1596C15.0276 17.2329 15.7748 16.4808 16.6966 16.4808C17.6184 16.4808 18.3657 17.2329 18.3657 18.1596C18.3657 19.0863 17.6184 19.8383 16.6966 19.8383Z" fill="white"></path>
<path d="M24.7494 15C22.9838 15 21.5527 16.4076 21.5527 18.1449C21.5527 19.8822 22.9838 21.2899 24.7494 21.2899C26.515 21.2899 27.945 19.8822 27.945 18.1449C27.945 16.4076 26.515 15 24.7494 15ZM24.7494 19.8383C23.8275 19.8383 23.0803 19.0863 23.0803 18.1596C23.0803 17.2329 23.8275 16.4808 24.7494 16.4808C25.6712 16.4808 26.4184 17.2329 26.4184 18.1596C26.4184 19.0863 25.6712 19.8383 24.7494 19.8383Z" fill="white"></path>
<path d="M35.091 21.2001L30.9608 15.1307H29.1289L33.2054 21.2001H35.091Z" fill="white"></path>
<path d="M29.1016 21.2001L33.2317 15.1307H35.0363L30.9608 21.2001H29.1016Z" fill="white"></path>
<path d="M11.5186 28.8829H8.90918V22.8496H10.4446V27.4012H11.5186V28.8829Z" fill="white"></path>
<path d="M16.6966 22.7092C14.931 22.7092 13.5 24.1178 13.5 25.8541C13.5 27.5914 14.931 29 16.6966 29C18.4622 29 19.8933 27.5914 19.8933 25.8541C19.8923 24.1178 18.4613 22.7092 16.6966 22.7092ZM16.6966 27.5475C15.7748 27.5475 15.0276 26.7954 15.0276 25.8687C15.0276 24.9411 15.7748 24.1899 16.6966 24.1899C17.6184 24.1899 18.3657 24.942 18.3657 25.8687C18.3657 26.7954 17.6184 27.5475 16.6966 27.5475Z" fill="white"></path>
<path d="M24.7494 22.7092C22.9838 22.7092 21.5527 24.1178 21.5527 25.8541C21.5527 27.5914 22.9838 29 24.7494 29C26.515 29 27.946 27.5914 27.946 25.8541C27.946 24.1178 26.515 22.7092 24.7494 22.7092ZM24.7494 27.5475C23.8275 27.5475 23.0803 26.7954 23.0803 25.8687C23.0803 24.9411 23.8275 24.1899 24.7494 24.1899C25.6712 24.1899 26.4184 24.942 26.4184 25.8687C26.4184 26.7954 25.6712 27.5475 24.7494 27.5475Z" fill="white"></path>
<path d="M34.2071 23.5003H29.9268V25.0259H34.2071V23.5003Z" fill="white"></path>
<path d="M34.2071 26.7789H29.9268V28.3045H34.2071V26.7789Z" fill="white"></path>
</g>
<defs>
<clipPath id="clip0_966_23677">
<rect width="26.1817" height="14" fill="white" transform="translate(8.90918 15)"></rect>
</clipPath>
</defs>
</svg>