<svg width="28" height="28" viewBox="0 0 28 28" fill="none" xmlns="http://www.w3.org/2000/svg">
<rect width="28" height="28" rx="14" fill="#1B1D1C"></rect>
<g clip-path="url(#clip0_1043_11324)">
<path d="M14 8.26055C15.8703 8.26055 16.0918 8.26875 16.8273 8.30156C17.5109 8.33164 17.8801 8.44648 18.1262 8.54219C18.4516 8.66797 18.6867 8.82109 18.9301 9.06445C19.1762 9.31055 19.3266 9.54297 19.4523 9.86836C19.548 10.1145 19.6629 10.4863 19.693 11.1672C19.7258 11.9055 19.734 12.127 19.734 13.9945C19.734 15.8648 19.7258 16.0863 19.693 16.8219C19.6629 17.5055 19.548 17.8746 19.4523 18.1207C19.3266 18.4461 19.1734 18.6813 18.9301 18.9246C18.684 19.1707 18.4516 19.3211 18.1262 19.4469C17.8801 19.5426 17.5082 19.6574 16.8273 19.6875C16.0891 19.7203 15.8676 19.7285 14 19.7285C12.1297 19.7285 11.9082 19.7203 11.1727 19.6875C10.4891 19.6574 10.1199 19.5426 9.87383 19.4469C9.54844 19.3211 9.31328 19.168 9.06992 18.9246C8.82383 18.6785 8.67344 18.4461 8.54766 18.1207C8.45195 17.8746 8.33711 17.5027 8.30703 16.8219C8.27422 16.0836 8.26602 15.8621 8.26602 13.9945C8.26602 12.1242 8.27422 11.9027 8.30703 11.1672C8.33711 10.4836 8.45195 10.1145 8.54766 9.86836C8.67344 9.54297 8.82656 9.30781 9.06992 9.06445C9.31602 8.81836 9.54844 8.66797 9.87383 8.54219C10.1199 8.44648 10.4918 8.33164 11.1727 8.30156C11.9082 8.26875 12.1297 8.26055 14 8.26055ZM14 7C12.0996 7 11.8617 7.0082 11.1152 7.04102C10.3715 7.07383 9.86016 7.19414 9.41719 7.36641C8.95508 7.54688 8.56406 7.78477 8.17578 8.17578C7.78477 8.56406 7.54688 8.95508 7.36641 9.41445C7.19414 9.86016 7.07383 10.3688 7.04102 11.1125C7.0082 11.8617 7 12.0996 7 14C7 15.9004 7.0082 16.1383 7.04102 16.8848C7.07383 17.6285 7.19414 18.1398 7.36641 18.5828C7.54688 19.0449 7.78477 19.4359 8.17578 19.8242C8.56406 20.2125 8.95508 20.4531 9.41445 20.6309C9.86016 20.8031 10.3688 20.9234 11.1125 20.9563C11.859 20.9891 12.0969 20.9973 13.9973 20.9973C15.8977 20.9973 16.1355 20.9891 16.882 20.9563C17.6258 20.9234 18.1371 20.8031 18.5801 20.6309C19.0395 20.4531 19.4305 20.2125 19.8188 19.8242C20.207 19.4359 20.4477 19.0449 20.6254 18.5855C20.7977 18.1398 20.918 17.6313 20.9508 16.8875C20.9836 16.141 20.9918 15.9031 20.9918 14.0027C20.9918 12.1023 20.9836 11.8645 20.9508 11.118C20.918 10.3742 20.7977 9.86289 20.6254 9.41992C20.4531 8.95508 20.2152 8.56406 19.8242 8.17578C19.4359 7.7875 19.0449 7.54688 18.5855 7.36914C18.1398 7.19688 17.6313 7.07656 16.8875 7.04375C16.1383 7.0082 15.9004 7 14 7Z" fill="white"></path>
<path d="M14 10.4043C12.0148 10.4043 10.4043 12.0148 10.4043 14C10.4043 15.9852 12.0148 17.5957 14 17.5957C15.9852 17.5957 17.5957 15.9852 17.5957 14C17.5957 12.0148 15.9852 10.4043 14 10.4043ZM14 16.3324C12.7121 16.3324 11.6676 15.2879 11.6676 14C11.6676 12.7121 12.7121 11.6676 14 11.6676C15.2879 11.6676 16.3324 12.7121 16.3324 14C16.3324 15.2879 15.2879 16.3324 14 16.3324Z" fill="white"></path>
<path d="M18.5773 10.2623C18.5773 10.7271 18.2 11.1018 17.7379 11.1018C17.273 11.1018 16.8984 10.7244 16.8984 10.2623C16.8984 9.79746 17.2758 9.42285 17.7379 9.42285C18.2 9.42285 18.5773 9.8002 18.5773 10.2623Z" fill="white"></path>
</g>
<defs>
<clipPath id="clip0_1043_11324">
<rect width="14" height="14" fill="white" transform="translate(7 7)"></rect>
</clipPath>
</defs>
</svg>