<svg width="160" height="20" viewBox="0 0 160 20" fill="none" xmlns="http://www.w3.org/2000/svg">
<path d="M6.74086 5.07692L10.106 10.318H13.4446L7.03763 0.402832H6.354L0 10.3816H3.39693L6.74086 5.07692Z" fill="#001A70"/>
<path d="M17.0324 0H14.1071V11.1606C13.0313 10.779 11.7171 10.5723 10.2173 10.5723C5.96189 10.5723 3.21149 12.2523 3.21149 14.8543C3.21149 17.4563 5.96189 19.1362 10.2173 19.1362C14.4727 19.1362 17.2443 17.4563 17.2443 14.8543C17.2443 13.4446 16.4335 12.3052 15.0133 11.558H17.0324V6.65607H19.751V3.91097H17.0324V0ZM10.2173 16.5872C7.72659 16.5713 6.11557 15.8877 6.11557 14.8543C6.11557 13.8209 7.72659 13.1373 10.2173 13.1373C12.708 13.1373 14.3403 13.8262 14.3403 14.8543C14.3403 15.8824 12.7239 16.5713 10.2173 16.5872Z" fill="#001A70"/>
<path d="M21.6904 15.4425H32.5595V1.47852H21.6904V15.4425ZM29.6554 4.22361V12.6974H24.6156V4.22361H29.6554Z" fill="#001A70"/>
<path d="M37.8059 0H34.8594V18.7864H37.8059V0Z" fill="#001A70"/>
<path d="M56.2585 0H53.3332V11.0546C52.268 10.6783 50.9697 10.4716 49.4858 10.4716C45.1933 10.4716 42.5224 12.1092 42.5224 14.7536C42.5224 17.398 45.188 19.0355 49.4858 19.0355C53.7837 19.0355 56.4705 17.3556 56.4705 14.7536C56.4705 13.3068 55.6226 12.1463 54.1387 11.399H56.2638V6.66137H58.9824V3.91627H56.2638V0.00530055L56.2585 0ZM49.4911 16.4812C46.9739 16.4653 45.4106 15.7976 45.4106 14.7483C45.4106 13.699 47.011 13.0313 49.4911 13.0313C51.9713 13.0313 53.5717 13.7043 53.5717 14.7483C53.5717 15.7923 51.9713 16.4812 49.4964 16.4812H49.4911Z" fill="#001A70"/>
<path d="M52.4535 9.05668L52.8509 8.9083L52.1938 6.32218L51.701 6.50766C50.3761 7.01111 48.1398 7.30787 45.7179 7.30787H43.4074V3.4128H51.1392V0.747192H40.5033V9.97348H45.6967C48.3411 9.97348 50.9325 9.61842 52.4588 9.05138L52.4535 9.05668Z" fill="#001A70"/>
<path d="M72.1833 8.3678H66.036V3.90039H63.7625V15.2888H66.036V10.5088H72.1833V15.2888H74.462V3.90039H72.1833V8.3678Z" fill="#001A70"/>
<path d="M83.1531 3.67777C81.4255 3.65657 79.7509 4.3243 78.5691 5.52196C77.4721 6.62954 76.8892 8.07628 76.9263 9.59192C76.8892 11.1234 77.4827 12.5808 78.6009 13.699C79.7562 14.8542 81.3513 15.5061 83.01 15.5061C83.0577 15.5061 83.1054 15.5061 83.1531 15.5061C84.8542 15.5432 86.5023 14.8966 87.6841 13.7255C88.8129 12.6073 89.4223 11.134 89.4011 9.59722C89.4223 8.06038 88.8288 6.60835 87.7159 5.49547C86.5394 4.3137 84.8754 3.65127 83.1531 3.67777ZM83.1425 5.81873H83.1478H83.1531C84.2607 5.79754 85.2888 6.20029 86.036 6.94751C86.7408 7.65233 87.1171 8.59033 87.0959 9.60252C87.1171 10.6041 86.7408 11.5421 86.036 12.2469C85.2888 12.9941 84.2607 13.3969 83.1372 13.3757C82.0402 13.4022 81.0174 12.9994 80.2702 12.2522C79.5654 11.5474 79.1838 10.6041 79.205 9.59192C79.1838 8.59033 79.5601 7.64703 80.2649 6.94221C81.0121 6.19499 82.0296 5.79754 83.1319 5.81873H83.1425Z" fill="#001A70"/>
<path d="M94.1336 3.90039H91.8549V15.2888H101.431V13.1691H94.1336V3.90039Z" fill="#001A70"/>
<path d="M108.251 3.90039C108.214 3.90039 108.182 3.90039 108.145 3.90039H103.503V15.2941H108.145C108.182 15.2941 108.214 15.2941 108.251 15.2941C110.08 15.2941 111.728 14.6476 112.909 13.4658C113.948 12.4219 114.51 11.0493 114.489 9.60786C114.51 8.15582 113.948 6.77797 112.909 5.73399C111.728 4.55222 110.08 3.90569 108.257 3.90569L108.251 3.90039ZM112.189 9.59726C112.189 11.7011 110.493 13.1744 108.066 13.1744H105.776V6.02546H108.066C110.493 6.02546 112.189 7.4934 112.189 9.60256V9.59726Z" fill="#001A70"/>
<path d="M119.189 3.90039H116.91V15.2941H119.189V3.90039Z" fill="#001A70"/>
<path d="M130.885 11.0864L123.031 3.58777H122.401V15.2889H124.663V8.04458L132.517 15.5433H133.148V3.90043H130.885V11.0864Z" fill="#001A70"/>
<path d="M141.632 10.7738H145.602C145.14 12.3265 143.646 13.3758 141.823 13.3758C139.581 13.3758 137.886 11.7489 137.886 9.5973C137.886 7.44574 139.581 5.81882 141.913 5.81882C143.259 5.81882 144.425 6.30106 145.374 7.24966L145.628 7.50403L147.207 5.9513L146.958 5.69163C145.718 4.39327 143.937 3.68315 141.95 3.68315C140.117 3.65665 138.453 4.30848 137.25 5.51675C136.158 6.61373 135.57 8.06577 135.591 9.592C135.554 11.1023 136.137 12.5491 137.239 13.662C138.431 14.8649 140.117 15.5485 141.828 15.5167C141.881 15.5167 141.929 15.5167 141.982 15.5167C143.625 15.5167 145.209 14.8755 146.349 13.7467C147.462 12.6445 148.06 11.203 148.034 9.67679V8.6752H141.632V10.7791V10.7738Z" fill="#001A70"/>
<path d="M156.444 8.43668L153.667 8.20351C153.068 8.15052 152.067 7.94914 152.067 7.18602C152.067 6.37521 153.105 5.80817 154.589 5.80817C155.935 5.80817 157.138 6.23213 157.986 7.00054L158.262 7.24961L159.714 5.5591L159.433 5.32063C158.161 4.25014 156.508 3.68311 154.653 3.68311C151.781 3.68311 149.772 5.15634 149.772 7.26021C149.772 8.98252 151.123 10.1643 153.302 10.3498L156.078 10.5829C156.688 10.6359 157.711 10.8638 157.711 11.8071C157.711 12.7504 156.608 13.3757 154.902 13.3757C153.355 13.3757 151.897 12.8405 150.901 11.9025L150.625 11.6428L149.179 13.3227L149.428 13.5612C150.753 14.8172 152.666 15.5114 154.822 15.5114C157.917 15.5114 160 13.9746 160 11.6799C160 9.83043 158.633 8.58507 156.439 8.43138L156.444 8.43668Z" fill="#001A70"/>
</svg>
