<svg width="32" height="32" viewBox="0 0 32 32" fill="none" xmlns="http://www.w3.org/2000/svg">
<path d="M19.6432 13.6374C19.6432 13.9687 19.9119 14.2374 20.2432 14.2374C20.5746 14.2374 20.8432 13.9687 20.8432 13.6374H20.2432H19.6432ZM16.0099 6.00004L16.0073 6.60004H16.0099V6.00004ZM11.7563 10.2154L11.1563 10.2128V10.2154H11.7563ZM11.1563 13.6374V14.2374H12.3563V13.6374H11.7563H11.1563ZM25.7653 11.0219H26.3653V10.4219L25.7653 10.4219L25.7653 11.0219ZM6.23438 11.0219L6.23437 10.4219L5.63437 10.4219L5.63437 11.0219L6.23438 11.0219ZM6.23438 16.2345L5.63437 16.2345L6.23438 16.2345ZM15.9999 26L15.9999 25.4L15.9999 26ZM25.7653 16.2345L25.1653 16.2345V16.2345L25.7653 16.2345ZM20.2432 13.6374H20.8432V10.2345H20.2432H19.6432V13.6374H20.2432ZM20.2432 10.2345H20.8432C20.8432 7.56435 18.6791 5.40004 16.0099 5.40004V6.00004V6.60004C18.0162 6.60004 19.6432 8.22689 19.6432 10.2345H20.2432ZM16.0099 6.00004L16.0125 5.40005C13.3425 5.38852 11.1679 7.54229 11.1563 10.2128L11.7563 10.2154L12.3563 10.218C12.365 8.21079 13.9995 6.59136 16.0073 6.60003L16.0099 6.00004ZM25.7653 16.2345H26.3653V11.0219H25.7653H25.1653V16.2345H25.7653ZM25.7653 11.0219L25.7653 10.4219L6.23437 10.4219L6.23438 11.0219L6.23438 11.6219L25.7653 11.6219L25.7653 11.0219ZM6.23438 11.0219L5.63437 11.0219L5.63437 16.2345L6.23438 16.2345L6.83438 16.2345L6.83438 11.0219L6.23438 11.0219ZM6.23438 16.2345L5.63437 16.2345C5.63438 21.9592 10.2752 26.6 15.9999 26.6L15.9999 26L15.9999 25.4C10.9379 25.4 6.83438 21.2965 6.83438 16.2345L6.23438 16.2345ZM25.7653 16.2345L25.1653 16.2345C25.1653 21.2965 21.0618 25.4 15.9999 25.4L15.9999 26L15.9999 26.6C21.7246 26.6 26.3653 21.9592 26.3653 16.2345L25.7653 16.2345ZM11.7563 10.2154H11.1563V13.6374H11.7563H12.3563V10.2154H11.7563Z" fill="#1B1D1C"></path>
</svg>