<svg width="152" height="40" viewBox="0 0 152 40" fill="none" xmlns="http://www.w3.org/2000/svg">
<path d="M7.45355 28.6322H0V11.3985H4.38575V24.4025H7.45355V28.6322Z" fill="#1B1D1C"/>
<path d="M22.2442 11C17.2009 11 13.1133 15.0207 13.1133 19.9833C13.1133 24.9458 17.2009 28.9666 22.2442 28.9666C27.2876 28.9666 31.3752 24.9458 31.3752 19.9833C31.3752 15.0207 27.2848 11 22.2442 11ZM22.2442 24.8205C19.6111 24.8205 17.4767 22.6722 17.4767 20.0251C17.4767 17.378 19.6111 15.2297 22.2442 15.2297C24.8774 15.2297 27.0117 17.378 27.0117 20.0251C27.0117 22.6722 24.8746 24.8205 22.2442 24.8205Z" fill="#1B1D1C"/>
<path d="M45.2462 11C40.2028 11 36.1152 15.0207 36.1152 19.9833C36.1152 24.9458 40.2028 28.9666 45.2462 28.9666C50.2895 28.9666 54.3743 24.9458 54.3743 19.9833C54.3743 15.0207 50.2895 11 45.2462 11ZM45.2462 24.8205C42.6131 24.8205 40.4787 22.6722 40.4787 20.0251C40.4787 17.378 42.6131 15.2297 45.2462 15.2297C47.8793 15.2297 50.0137 17.378 50.0137 20.0251C50.0137 22.6722 47.8793 24.8205 45.2462 24.8205Z" fill="#1B1D1C"/>
<path d="M87.0942 28.6629H79.6406V11.4291H84.0264V24.4332H87.0942V28.6629Z" fill="#1B1D1C"/>
<path d="M101.885 11.0306C96.8415 11.0306 92.7539 15.0542 92.7539 20.0139C92.7539 24.9765 96.8415 29 101.885 29C106.928 29 111.016 24.9765 111.016 20.0139C111.016 15.0542 106.928 11.0306 101.885 11.0306ZM101.885 24.8511C99.2517 24.8511 97.1174 22.7028 97.1174 20.0557C97.1174 17.4059 99.2517 15.2604 101.885 15.2604C104.518 15.2604 106.652 17.4087 106.652 20.0557C106.652 22.7028 104.518 24.8511 101.885 24.8511Z" fill="#1B1D1C"/>
<path d="M124.889 11.0306C119.845 11.0306 115.758 15.0541 115.758 20.0139C115.758 24.9764 119.845 29 124.889 29C129.932 29 134.02 24.9764 134.02 20.0139C134.017 15.0541 129.929 11.0306 124.889 11.0306ZM124.889 24.851C122.256 24.851 120.121 22.7028 120.121 20.0557C120.121 17.4058 122.256 15.2603 124.889 15.2603C127.522 15.2603 129.656 17.4086 129.656 20.0557C129.656 22.7028 127.522 24.851 124.889 24.851Z" fill="#1B1D1C"/>
<path d="M151.906 13.2876H139.68V17.6455H151.906V13.2876Z" fill="#1B1D1C"/>
<path d="M151.906 22.6081H139.68V26.966H151.906V22.6081Z" fill="#1B1D1C"/>
<path d="M74.7862 28.7102L62.9887 11.3734H57.7559L69.4001 28.7102H74.7862Z" fill="#1B1D1C"/>
<path d="M57.6777 28.7102L69.4752 11.3734H74.63L62.9886 28.7102H57.6777Z" fill="#1B1D1C"/>
</svg>
