<svg width="136" height="20" viewBox="0 0 136 20" fill="none" xmlns="http://www.w3.org/2000/svg">
<g clip-path="url(#clip0_1043_11275)">
<path d="M6.62539 15.6734H0V0.354492H3.89845V11.9136H6.62539V15.6734Z" fill="#1B1D1C"/>
<path d="M19.7722 0C15.2892 0 11.6558 3.57399 11.6558 7.98514C11.6558 12.3963 15.2892 15.9703 19.7722 15.9703C24.2551 15.9703 27.8886 12.3963 27.8886 7.98514C27.8886 3.57399 24.2527 0 19.7722 0ZM19.7722 12.2848C17.4316 12.2848 15.5344 10.3752 15.5344 8.02229C15.5344 5.66935 17.4316 3.75975 19.7722 3.75975C22.1127 3.75975 24.0099 5.66935 24.0099 8.02229C24.0099 10.3752 22.1103 12.2848 19.7722 12.2848Z" fill="#1B1D1C"/>
<path d="M40.218 0C35.735 0 32.1016 3.57399 32.1016 7.98514C32.1016 12.3963 35.735 15.9703 40.218 15.9703C44.7009 15.9703 48.3319 12.3963 48.3319 7.98514C48.3319 3.57399 44.7009 0 40.218 0ZM40.218 12.2848C37.8774 12.2848 35.9802 10.3752 35.9802 8.02229C35.9802 5.66935 37.8774 3.75975 40.218 3.75975C42.5585 3.75975 44.4557 5.66935 44.4557 8.02229C44.4557 10.3752 42.5585 12.2848 40.218 12.2848Z" fill="#1B1D1C"/>
<path d="M77.4169 15.7007H70.7915V0.381836H74.69V11.941H77.4169V15.7007Z" fill="#1B1D1C"/>
<path d="M90.5637 0.0273438C86.0807 0.0273438 82.4473 3.60381 82.4473 8.01248C82.4473 12.4236 86.0807 16.0001 90.5637 16.0001C95.0466 16.0001 98.6801 12.4236 98.6801 8.01248C98.6801 3.60381 95.0466 0.0273438 90.5637 0.0273438ZM90.5637 12.3122C88.2231 12.3122 86.3259 10.4026 86.3259 8.04963C86.3259 5.69422 88.2231 3.7871 90.5637 3.7871C92.9042 3.7871 94.8014 5.69669 94.8014 8.04963C94.8014 10.4026 92.9042 12.3122 90.5637 12.3122Z" fill="#1B1D1C"/>
<path d="M111.012 0.0273438C106.529 0.0273438 102.896 3.60381 102.896 8.01248C102.896 12.4236 106.529 16.0001 111.012 16.0001C115.495 16.0001 119.128 12.4236 119.128 8.01248C119.126 3.60381 115.492 0.0273438 111.012 0.0273438ZM111.012 12.3122C108.671 12.3122 106.774 10.4026 106.774 8.04963C106.774 5.69422 108.671 3.7871 111.012 3.7871C113.352 3.7871 115.25 5.69669 115.25 8.04963C115.25 10.4026 113.352 12.3122 111.012 12.3122Z" fill="#1B1D1C"/>
<path d="M135.027 2.0332H124.159V5.90689H135.027V2.0332Z" fill="#1B1D1C"/>
<path d="M135.027 10.3184H124.159V14.192H135.027V10.3184Z" fill="#1B1D1C"/>
<path d="M66.4769 15.7426L55.9903 0.332031H51.3389L61.6893 15.7426H66.4769Z" fill="#1B1D1C"/>
<path d="M51.2695 15.7426L61.7562 0.332031H66.3383L55.9903 15.7426H51.2695Z" fill="#1B1D1C"/>
</g>
<defs>
<clipPath id="clip0_1043_11275">
<rect width="135.027" height="20" fill="white"/>
</clipPath>
</defs>
</svg>
