<svg width="14" height="12" viewBox="0 0 14 12" fill="none" xmlns="http://www.w3.org/2000/svg">
<path d="M11.364 2.81094C11.1125 2.55893 10.8137 2.359 10.4848 2.22258C10.1559 2.08617 9.80328 2.01595 9.4472 2.01595C9.09113 2.01595 8.73855 2.08617 8.40964 2.22258C8.08073 2.359 7.78195 2.55893 7.53039 2.81094L7.00856 3.33353L6.48597 2.81094C6.23507 2.55556 5.93607 2.35242 5.60624 2.21324C5.2764 2.07406 4.92226 2.00159 4.56426 2.00003C4.20626 1.99846 3.8515 2.06783 3.52045 2.20412C3.18941 2.34042 2.88865 2.54094 2.63553 2.79411C2.38241 3.04728 2.18194 3.34809 2.04572 3.67916C1.90949 4.01023 1.84019 4.365 1.84183 4.723C1.84346 5.081 1.916 5.43513 2.05525 5.76494C2.19449 6.09475 2.3977 6.39371 2.65312 6.64455L3.17495 7.16638L7.00856 11L10.8414 7.16638L11.364 6.64455C11.8722 6.13611 12.1577 5.44664 12.1577 4.72775C12.1577 4.00885 11.8722 3.31939 11.364 2.81094Z" fill="#CCCCCC"/>
</svg>
