<svg width="32" height="32" viewBox="0 0 32 32" fill="none" xmlns="http://www.w3.org/2000/svg">
<path d="M24.728 8.62188C24.2249 8.11786 23.6274 7.71799 22.9695 7.44516C22.3117 7.17234 21.6066 7.03191 20.8944 7.03191C20.1823 7.03191 19.4771 7.17234 18.8193 7.44516C18.1615 7.71799 17.5639 8.11786 17.0608 8.62188L16.0171 9.66706L14.9719 8.62188C14.4701 8.11113 13.8721 7.70484 13.2125 7.42648C12.5528 7.14811 11.8445 7.00318 11.1285 7.00005C10.4125 6.99692 9.70299 7.13566 9.04091 7.40825C8.37882 7.68084 7.77729 8.08188 7.27105 8.58822C6.76481 9.09456 6.36389 9.69617 6.09143 10.3583C5.81897 11.0205 5.68038 11.73 5.68365 12.446C5.68692 13.162 5.83199 13.8703 6.11049 14.5299C6.38899 15.1895 6.79539 15.7874 7.30624 16.2891L8.3499 17.3328L16.0171 25L23.6828 17.3328L24.728 16.2891C25.7445 15.2722 26.3155 13.8933 26.3155 12.4555C26.3155 11.0177 25.7445 9.63877 24.728 8.62188Z" stroke="#1B1D1C" stroke-width="1.2" stroke-linecap="square"></path>
</svg>