<svg width="6" height="12" viewBox="0 0 6 12" fill="none" xmlns="http://www.w3.org/2000/svg">
<mask id="path-1-inside-1_1043_12502" fill="white">
<path fill-rule="evenodd" clip-rule="evenodd" d="M6 0L2.62268e-07 6L6 12"></path>
</mask>
<path d="M5.29289 -0.707107L6 -1.41421L7.41421 6.18172e-08L6.70711 0.707107L5.29289 -0.707107ZM2.62268e-07 6L-0.707107 6.70711L-1.41421 6L-0.707107 5.29289L2.62268e-07 6ZM6.70711 11.2929L7.41421 12L6 13.4142L5.29289 12.7071L6.70711 11.2929ZM6 0L6.70711 0.707107L0.707107 6.70711L2.62268e-07 6L-0.707107 5.29289L5.29289 -0.707107L6 0ZM2.62268e-07 6L0.707107 5.29289L6.70711 11.2929L6 12L5.29289 12.7071L-0.707107 6.70711L2.62268e-07 6Z" fill="#1B1D1C" mask="url(#path-1-inside-1_1043_12502)"></path>
</svg>