<svg width="6" height="12" viewBox="0 0 6 12" fill="none" xmlns="http://www.w3.org/2000/svg">
<mask id="path-1-inside-1_1043_12504" fill="white">
<path fill-rule="evenodd" clip-rule="evenodd" d="M-5.24537e-07 0L6 6L0 12"></path>
</mask>
<path d="M0.707106 -0.707107L-5.86354e-07 -1.41421L-1.41421 6.18172e-08L-0.707107 0.707107L0.707106 -0.707107ZM6 6L6.70711 6.70711L7.41421 6L6.70711 5.29289L6 6ZM-0.707107 11.2929L-1.41421 12L6.18172e-08 13.4142L0.707107 12.7071L-0.707107 11.2929ZM-5.24537e-07 0L-0.707107 0.707107L5.29289 6.70711L6 6L6.70711 5.29289L0.707106 -0.707107L-5.24537e-07 0ZM6 6L5.29289 5.29289L-0.707107 11.2929L0 12L0.707107 12.7071L6.70711 6.70711L6 6Z" fill="#1B1D1C" mask="url(#path-1-inside-1_1043_12504)"></path>
</svg>